<?xml version="1.0" standalone="no"?>
<!DOCTYPE svg PUBLIC "-//W3C//DTD SVG 20010904//EN"
 "http://www.w3.org/TR/2001/REC-SVG-20010904/DTD/svg10.dtd">
<svg version="1.0" xmlns="http://www.w3.org/2000/svg"
 width="336.000000pt" height="541.000000pt" viewBox="0 0 336.000000 541.000000"
 preserveAspectRatio="xMidYMid meet">

<g transform="translate(0.000000,541.000000) scale(0.100000,-0.100000)"
fill="#000000" stroke="none">
<path d="M2360 5009 c-19 -4 -56 -9 -83 -10 -26 -2 -53 -9 -59 -16 -6 -8 -25
-21 -42 -30 -44 -22 -89 -64 -181 -169 -52 -58 -104 -112 -182 -186 -90 -86
-263 -277 -263 -290 0 -14 -42 -70 -82 -110 -21 -21 -38 -41 -38 -45 0 -17
-77 -91 -120 -115 -25 -15 -74 -32 -110 -39 -36 -6 -76 -17 -90 -24 -14 -6
-59 -12 -100 -13 -41 -1 -88 -5 -105 -9 -54 -11 -207 -7 -215 7 -10 17 -111
-40 -127 -72 -24 -47 -45 -144 -50 -223 -4 -77 -3 -82 24 -112 55 -61 106 -75
209 -57 43 8 108 18 144 23 84 11 120 21 120 32 0 5 18 9 40 9 39 0 164 34
185 51 6 4 38 11 70 14 33 4 79 13 103 21 34 11 172 17 172 7 0 -2 -16 -27
-35 -57 -19 -30 -35 -57 -35 -59 0 -3 -8 -22 -17 -43 -20 -47 -17 -36 -43
-164 -11 -58 -20 -118 -19 -135 2 -57 2 -57 -48 -52 -27 3 -84 12 -128 20 -44
8 -114 17 -155 20 -74 6 -216 41 -235 58 -5 5 -24 9 -43 9 -18 0 -41 4 -50 9
-9 5 -37 11 -62 14 -25 4 -61 11 -80 17 -77 23 -85 15 -104 -100 -12 -75 -15
-149 -11 -345 5 -302 6 -354 6 -425 0 -82 1 -174 2 -275 0 -49 0 -133 -1 -185
-1 -52 -1 -207 0 -345 2 -278 1 -379 -6 -570 -2 -71 -5 -141 -5 -155 -5 -137
3 -476 11 -517 10 -50 13 -53 47 -60 44 -9 569 -11 681 -2 8 0 96 2 195 4 99
1 196 6 215 11 30 8 236 9 335 3 17 -1 102 1 190 5 88 5 285 9 437 10 312 2
303 0 326 79 7 24 14 75 14 113 1 96 -11 599 -18 774 -3 80 -7 204 -9 275 -2
72 -8 157 -12 190 -5 33 -6 75 -2 93 4 18 5 116 3 219 -2 102 1 238 8 302 12
129 12 117 10 331 -1 85 -1 166 -1 180 3 523 -3 652 -35 663 -6 2 -29 2 -50
-1 -33 -4 -52 -18 -123 -88 -46 -46 -87 -84 -92 -84 -5 0 -11 -3 -13 -8 -1 -4
-42 -33 -89 -65 -90 -60 -139 -74 -139 -38 0 11 -11 32 -24 46 -22 23 -34 27
-90 29 -35 1 -71 7 -79 14 -8 7 -20 38 -26 70 -12 57 -12 57 30 137 23 44 55
95 71 113 16 18 43 58 60 88 17 31 40 62 52 70 42 27 127 231 146 349 4 28 15
68 23 91 12 31 13 50 6 80 -27 104 -22 116 39 106 29 -4 33 -7 27 -26 -4 -11
-10 -40 -12 -62 -4 -35 -1 -45 22 -66 38 -36 96 -36 121 -2 11 15 29 39 41 54
12 14 27 49 34 76 6 27 15 54 20 59 4 6 11 34 15 63 l7 53 -82 79 c-44 44 -81
84 -81 90 0 26 -132 180 -154 180 -5 0 -19 9 -30 19 -24 22 -119 33 -176 20z
m154 -109 c6 -8 28 -28 49 -43 20 -15 37 -34 37 -40 0 -18 108 -151 128 -158
9 -4 30 -19 45 -33 26 -24 28 -30 21 -73 -11 -72 -19 -96 -33 -101 -8 -3 -11
0 -7 6 10 17 -19 79 -44 92 -12 6 -42 14 -68 17 -147 17 -176 -3 -172 -116 4
-97 3 -131 -4 -176 -3 -22 -8 -58 -11 -80 -3 -22 -17 -57 -30 -77 -14 -21 -25
-51 -25 -67 0 -26 -28 -84 -83 -176 -7 -11 -30 -40 -52 -65 -74 -84 -105 -125
-105 -140 0 -8 -7 -26 -14 -40 -53 -95 -57 -106 -50 -166 3 -33 11 -75 17 -94
6 -19 11 -45 12 -57 1 -39 21 -48 103 -48 l77 0 16 -50 c14 -46 18 -50 49 -53
36 -4 69 9 113 45 16 13 38 23 50 23 12 0 46 17 76 38 29 20 64 44 77 53 13 8
38 29 56 45 97 87 114 79 117 -58 2 -51 2 -102 1 -113 -1 -17 0 -144 2 -220 0
-11 -4 -51 -8 -90 -5 -38 -6 -99 -3 -135 4 -36 2 -96 -4 -135 -11 -79 -13
-543 -3 -740 3 -71 8 -241 11 -376 3 -136 9 -279 15 -319 6 -39 7 -77 3 -83
-4 -7 -9 -140 -10 -297 -1 -157 -2 -293 -3 -303 -3 -36 -48 -46 -251 -51 -107
-3 -246 -8 -309 -11 -63 -4 -200 -5 -305 -4 -300 4 -481 1 -522 -10 -36 -9
-167 -13 -481 -12 -79 0 -153 -4 -165 -8 -12 -5 -35 -4 -52 1 -16 6 -49 9 -73
8 -24 0 -58 4 -76 10 l-33 11 4 112 c6 156 6 157 5 202 0 22 -1 189 -1 370 0
182 -1 344 -2 360 -1 33 8 290 16 422 2 45 1 84 -3 87 -4 2 -6 31 -5 63 5 93
3 392 -3 463 -3 36 -5 135 -4 220 1 85 1 163 0 173 0 9 -1 29 -2 45 -3 54 15
243 23 248 5 3 28 0 51 -7 23 -6 57 -11 75 -11 18 0 39 -8 49 -19 11 -12 30
-19 56 -19 21 0 38 -4 38 -10 0 -5 6 -10 14 -10 8 0 21 -6 28 -13 8 -8 35 -14
68 -14 85 1 207 -10 221 -19 13 -8 144 -17 222 -15 67 1 67 2 71 157 2 134 4
141 34 199 18 33 32 65 32 71 0 6 18 45 41 88 30 57 39 86 37 113 -3 35 -6 38
-51 52 -41 13 -61 13 -140 2 -51 -7 -105 -14 -122 -16 -16 -1 -41 -7 -55 -12
-14 -6 -28 -9 -33 -6 -4 2 -40 -7 -80 -21 -79 -27 -116 -35 -192 -42 -27 -3
-75 -11 -105 -18 -30 -8 -69 -12 -86 -9 -18 3 -42 0 -54 -7 -13 -7 -40 -9 -69
-5 -42 6 -49 10 -59 39 -7 18 -12 47 -12 65 0 30 19 121 27 130 2 3 70 6 151
7 166 3 272 12 272 23 0 4 28 12 63 18 59 11 109 21 222 45 48 10 52 14 100
87 28 42 63 90 78 107 15 17 41 51 56 75 16 24 110 130 211 234 407 425 435
451 479 461 15 3 40 10 56 14 52 13 186 6 199 -10z"/>
<path d="M2317 4824 c-30 -16 -57 -61 -50 -84 17 -57 57 -100 102 -111 33 -7
54 3 95 49 29 31 33 42 29 72 -7 53 -51 90 -106 88 -24 0 -55 -7 -70 -14z"/>
<path d="M1873 3723 c-7 -2 -13 -11 -13 -18 0 -7 -11 -23 -25 -36 -13 -13 -25
-30 -25 -38 0 -7 -8 -21 -19 -30 -10 -9 -21 -26 -25 -38 -4 -13 -12 -23 -17
-23 -6 0 -29 -17 -52 -39 -23 -21 -64 -58 -91 -83 l-48 -44 -3 -79 c-4 -108 7
-125 78 -123 35 0 56 6 64 17 11 14 15 15 40 1 23 -13 29 -24 33 -60 6 -56 33
-72 105 -65 59 6 98 18 182 56 77 35 87 49 34 49 -47 0 -52 6 -76 102 -9 37
-25 85 -36 107 -38 79 -45 126 -26 178 9 27 17 67 17 90 0 35 -5 45 -29 62
-29 21 -45 24 -68 14z m-5 -251 c5 -38 22 -95 38 -128 33 -71 44 -154 21 -172
-8 -7 -28 -14 -44 -15 -26 -2 -28 0 -30 40 -1 23 -9 53 -18 67 -19 29 -78 45
-105 28 -28 -17 -87 -25 -94 -13 -7 11 20 78 39 96 5 6 22 18 37 28 16 9 34
33 42 52 12 28 74 82 97 84 4 1 11 -30 17 -67z"/>
<path d="M2610 3205 c-19 -14 -41 -25 -49 -25 -9 0 -41 -12 -71 -26 -30 -15
-64 -30 -75 -34 -11 -4 -40 -17 -65 -28 -25 -11 -54 -23 -65 -25 -11 -3 -42
-14 -70 -25 -27 -11 -70 -25 -95 -31 -25 -7 -67 -18 -95 -27 -27 -8 -68 -16
-90 -19 -22 -3 -54 -10 -71 -16 -17 -5 -67 -12 -110 -14 -43 -2 -133 -8 -199
-12 -66 -5 -140 -5 -165 -1 -25 4 -90 14 -145 23 -55 8 -122 21 -150 29 -107
32 -163 45 -233 57 -68 12 -75 11 -100 -8 -28 -21 -47 -94 -29 -112 5 -5 9
-26 9 -47 0 -22 0 -55 0 -74 0 -19 0 -46 -1 -60 -1 -24 -1 -53 -2 -190 0 -101
-8 -732 -10 -760 -1 -29 -1 -36 1 -150 0 -47 6 -123 12 -170 14 -105 14 -130
4 -255 -8 -100 -14 -276 -16 -455 0 -52 5 -117 13 -145 18 -66 39 -77 137 -70
182 14 241 17 340 16 58 0 121 -2 140 -5 57 -8 90 -8 195 -2 88 5 216 6 325 4
69 -1 416 11 453 17 21 3 47 1 57 -5 16 -8 26 -6 49 11 24 18 36 20 68 14 21
-4 52 -7 68 -6 17 1 56 4 88 5 33 2 63 8 68 13 8 8 11 69 11 263 0 36 -1 76
-1 90 -6 124 -5 372 2 445 7 84 9 147 7 270 -1 105 12 366 20 395 5 17 7 37 4
44 -9 25 -10 210 -2 281 14 108 18 683 6 730 -5 22 -12 48 -14 59 -11 58 -95
75 -154 31z m77 -97 c5 -18 9 -49 8 -68 -1 -19 2 -40 6 -46 5 -7 5 -66 -2
-140 -6 -71 -9 -143 -6 -161 5 -27 2 -32 -16 -35 -12 -2 -34 -22 -50 -46 -16
-24 -30 -42 -32 -40 -1 2 2 32 7 68 8 55 6 129 -6 227 -6 54 -66 71 -109 30
-19 -17 -26 -36 -30 -77 -21 -213 -33 -233 -148 -244 -55 -6 -88 -16 -138 -43
-60 -32 -69 -34 -120 -28 -31 4 -69 14 -85 22 -71 37 -208 38 -280 4 -26 -13
-56 -21 -66 -18 -11 3 -22 1 -25 -4 -3 -4 -12 -6 -19 -3 -8 3 -17 1 -20 -4 -3
-5 -28 -6 -62 0 -64 10 -79 8 -79 -13 0 -24 -20 -25 -23 -1 -2 12 -10 22 -18
22 -8 0 -14 5 -14 10 0 6 -7 10 -15 10 -8 0 -15 4 -15 8 0 12 -69 32 -86 25
-23 -9 -11 -26 32 -48 21 -11 43 -26 47 -32 4 -7 14 -13 21 -13 7 0 31 -18 54
-40 40 -40 41 -40 116 -40 53 0 98 7 150 24 108 36 177 40 256 15 88 -28 158
-27 223 4 70 32 131 49 184 49 24 0 64 9 89 19 35 16 44 25 44 45 0 14 5 34
11 46 6 11 13 61 15 111 5 93 16 125 34 97 5 -8 10 -26 10 -40 0 -35 -59 -279
-77 -315 -13 -26 -13 -30 3 -42 10 -7 23 -13 28 -13 23 1 122 67 131 88 13 30
35 37 35 11 0 -22 -122 -149 -143 -149 -7 0 -23 -9 -36 -19 -24 -18 -24 -20
-8 -45 10 -14 25 -26 35 -26 9 0 25 -6 34 -14 22 -16 5 -36 -30 -36 -28 0 -62
-17 -62 -31 0 -18 25 -36 59 -44 33 -7 81 -44 81 -63 0 -34 -63 -10 -104 38
-16 19 -30 28 -40 24 -18 -7 -116 14 -116 25 0 3 9 12 19 18 25 16 23 48 -5
78 l-22 23 23 6 c22 6 35 31 35 71 0 26 -61 92 -92 100 -14 4 -45 -4 -80 -19
-50 -22 -58 -30 -67 -63 -14 -50 -14 -65 3 -89 8 -11 15 -40 14 -63 0 -36 -4
-44 -27 -53 -14 -6 -35 -14 -46 -19 -84 -36 -269 -48 -535 -35 -53 3 -82 -4
-146 -31 -18 -7 -43 -12 -55 -11 -13 1 -40 -2 -59 -7 -34 -7 -35 -7 -17 12 10
11 33 29 53 39 40 22 54 58 31 81 -12 12 -20 13 -29 6 -7 -6 -29 -13 -48 -16
-19 -2 -60 -12 -90 -22 -30 -9 -67 -18 -82 -18 -15 -1 -37 -10 -48 -19 -11
-10 -29 -18 -39 -18 -19 0 -51 24 -51 38 0 60 23 279 31 293 9 17 12 17 32 5
12 -7 42 -17 67 -20 25 -4 62 -18 84 -32 29 -20 46 -24 71 -20 40 8 54 35 28
53 -32 23 -83 77 -83 89 0 6 7 17 15 24 21 17 9 30 -26 30 -22 0 -32 -6 -39
-25 -9 -25 -34 -33 -44 -16 -11 17 -81 22 -126 8 -42 -12 -46 -16 -61 -62 -9
-28 -17 -77 -18 -110 0 -32 -6 -64 -11 -69 -13 -13 -13 -196 0 -196 6 0 10 -7
10 -15 0 -9 11 -27 25 -40 25 -26 62 -32 93 -16 9 5 48 18 87 30 86 26 106 15
53 -29 -42 -35 -55 -64 -38 -85 17 -20 55 -19 118 4 71 26 158 37 176 22 11
-10 18 -8 33 8 10 11 29 24 43 29 25 9 157 8 262 -3 32 -3 59 -1 63 4 3 6 36
9 74 9 53 -1 76 3 105 20 20 12 42 19 49 16 7 -2 30 2 51 11 44 18 135 22 164
6 11 -6 33 -11 47 -11 32 0 167 -53 192 -75 88 -78 118 -96 155 -92 32 4 37 2
43 -20 3 -14 1 -40 -5 -58 -10 -31 -14 -33 -68 -38 -31 -4 -100 -7 -152 -7
-156 0 -262 -8 -273 -19 -6 -6 -22 -11 -36 -11 -50 0 -60 -23 -54 -119 3 -47
9 -90 13 -96 4 -5 6 -89 4 -185 -2 -101 0 -176 6 -180 6 -3 5 -32 -1 -75 -5
-39 -10 -148 -11 -243 -2 -193 -1 -191 -71 -186 -116 9 -522 -3 -545 -15 -7
-4 -26 -5 -43 -3 l-30 4 6 127 c3 69 8 178 10 241 3 63 5 120 6 125 0 6 0 37
-1 70 0 33 0 67 2 75 6 33 -14 348 -25 394 -7 28 -20 54 -32 61 -34 22 -123
35 -226 34 -54 0 -103 2 -109 6 -7 4 -47 7 -89 7 -42 -1 -92 2 -111 6 l-35 8
-2 159 c-1 88 -2 167 -2 175 -1 8 1 58 3 110 8 170 9 597 1 609 -4 7 -4 32 0
57 7 49 20 54 77 30 41 -17 166 -46 202 -46 15 0 38 -7 51 -16 18 -11 53 -17
117 -19 179 -5 278 -16 287 -34 9 -14 11 -14 28 1 12 11 53 20 123 27 58 6
130 18 160 26 30 8 69 15 86 15 16 0 39 7 50 15 10 8 33 15 51 15 18 0 42 4
55 9 13 5 52 14 87 21 35 6 81 22 102 36 21 13 47 24 57 24 24 0 109 42 145
72 26 21 131 63 167 67 10 0 20 -12 27 -31z m8 -717 c-3 -6 -6 -46 -7 -90 0
-45 -2 -81 -4 -81 -2 0 -25 20 -50 45 l-47 44 49 45 c45 42 73 59 59 37z
m-444 -47 c12 -14 11 -16 -5 -13 -11 2 -21 10 -24 17 -5 17 13 15 29 -4z m437
-307 c4 -35 -16 -35 -29 0 -6 16 -18 37 -27 47 -17 19 -16 19 18 0 24 -14 36
-28 38 -47z m-1449 -367 c94 0 91 4 95 -126 10 -284 19 -453 26 -475 5 -17 4
-31 -3 -38 -12 -12 -14 -30 -20 -206 -3 -80 -9 -121 -22 -149 -16 -34 -20 -37
-31 -22 -7 10 -13 51 -13 94 -1 42 -6 133 -12 202 -7 69 -11 157 -11 195 2
145 14 340 21 355 9 16 -5 80 -17 80 -4 1 -27 5 -52 10 -64 13 -109 -3 -143
-51 -31 -45 -34 -88 -22 -279 4 -58 8 -127 9 -155 1 -27 4 -54 7 -60 4 -5 3
-35 0 -65 -6 -56 -5 -110 3 -210 5 -69 -10 -122 -32 -118 -14 3 -17 17 -17 78
0 41 -4 81 -8 88 -7 11 -20 553 -17 699 1 40 -1 43 -37 59 -21 9 -58 18 -81
19 -54 3 -64 13 -56 53 l7 32 66 -1 c36 -1 77 -4 90 -8 38 -10 162 9 169 27 4
12 7 10 13 -6 8 -20 16 -22 88 -22z m1311 -4 c14 0 41 2 60 5 53 6 44 -20 -15
-43 -65 -26 -72 -32 -80 -76 -3 -20 -7 -219 -10 -442 -3 -388 -7 -440 -26
-440 -20 0 -27 44 -25 178 1 79 0 145 -3 148 -10 10 -7 83 6 126 9 30 10 54 4
70 -9 25 -8 155 3 224 4 27 1 53 -9 77 -8 20 -15 47 -15 61 0 57 -54 81 -138
61 -25 -6 -34 -14 -39 -36 -3 -15 -13 -35 -22 -43 -16 -14 -17 -46 -15 -338 2
-178 8 -364 15 -414 12 -96 6 -125 -25 -130 -23 -3 -40 38 -31 73 5 15 9 105
10 198 1 94 5 182 9 196 4 15 3 29 -2 33 -6 3 -7 20 -2 41 8 36 5 232 -5 368
l-6 77 30 2 c62 3 233 27 239 33 3 2 18 1 36 -3 17 -3 42 -6 56 -6z m-190
-226 c3 -174 10 -330 15 -380 7 -58 9 -135 5 -210 -1 -25 -1 -76 0 -113 2 -75
-3 -87 -27 -71 -22 14 -27 74 -38 472 -6 235 -2 304 22 382 9 30 22 -13 23
-80z m284 51 c3 -21 2 -71 -3 -111 -5 -40 -7 -82 -5 -94 18 -79 23 -168 20
-363 -3 -235 -7 -257 -50 -251 -20 3 -21 8 -20 158 1 85 2 178 3 205 1 28 1
61 1 75 0 14 0 90 -1 170 0 80 -2 159 -5 175 -3 20 2 38 13 53 26 32 40 27 47
-17z m-1749 0 c3 -10 7 -170 10 -357 2 -186 7 -370 10 -407 7 -76 -2 -97 -41
-97 -27 0 -59 42 -51 64 3 8 2 27 -2 43 -7 24 -3 132 15 448 2 44 5 132 7 195
1 63 6 120 10 127 10 16 35 6 42 -16z m272 -119 c2 -64 5 -175 8 -247 2 -71 5
-204 6 -294 1 -149 0 -166 -17 -178 -10 -7 -22 -12 -28 -10 -5 2 -10 62 -11
138 -1 76 -7 146 -14 163 -7 18 -8 33 -2 40 13 15 16 126 7 276 -4 83 -3 141
5 175 19 81 18 80 32 66 8 -8 13 -53 14 -129z"/>
<path d="M1882 2364 c-69 -41 -67 -74 4 -74 53 0 51 -15 -3 -25 -47 -8 -73
-31 -73 -61 0 -31 38 -41 88 -21 20 8 60 14 89 15 28 0 56 3 62 7 17 10 13 42
-5 49 -12 5 -14 14 -9 46 6 33 3 43 -18 64 -31 31 -82 32 -135 0z"/>
<path d="M1752 2369 c-22 -8 -39 -35 -29 -45 3 -3 21 -9 41 -14 26 -6 38 -4
47 7 19 22 -28 64 -59 52z"/>
<path d="M1966 1931 c-4 -7 -5 -15 -2 -18 9 -9 19 4 14 18 -4 11 -6 11 -12 0z"/>
<path d="M1660 1897 c-104 -27 -120 -32 -120 -38 0 -4 -11 -10 -24 -13 -25 -6
-66 -65 -66 -95 0 -9 5 -22 12 -29 7 -7 9 -12 5 -12 -4 0 -2 -10 5 -22 7 -13
13 -36 13 -53 4 -83 28 -254 41 -282 8 -17 14 -46 14 -65 0 -18 5 -49 11 -68
5 -19 9 -100 8 -180 -3 -215 -3 -214 19 -256 25 -50 46 -67 105 -89 45 -17 48
-17 66 -1 43 39 54 84 56 228 1 89 6 142 14 152 6 7 34 23 61 35 46 20 49 24
56 66 8 59 1 78 -28 69 -51 -15 -93 -40 -93 -54 -1 -25 -14 -38 -44 -45 -43
-9 -66 -39 -62 -83 1 -20 3 -83 4 -139 2 -86 -1 -105 -15 -120 -16 -16 -20
-16 -33 -2 -21 21 -29 211 -13 296 10 52 9 67 -3 89 -7 15 -14 32 -14 38 -2
34 -19 134 -26 153 -5 13 -11 46 -14 75 -4 29 -9 57 -13 63 -4 5 -14 60 -23
120 -16 112 -12 145 19 145 7 0 20 4 30 9 36 19 157 34 180 22 11 -6 30 -11
41 -11 11 0 26 -6 33 -13 7 -8 29 -14 47 -15 19 0 38 -5 44 -11 14 -14 18
-133 5 -149 -6 -7 -12 -22 -14 -35 -6 -40 -15 -81 -26 -117 -26 -84 -30 -90
-55 -90 -46 0 -114 -23 -128 -42 -25 -37 -9 -50 55 -45 46 4 60 1 73 -13 25
-30 65 -15 77 29 5 20 10 42 10 50 0 7 11 26 25 43 14 16 26 39 27 51 3 43 5
52 21 87 8 19 18 78 22 131 10 135 -13 199 -72 199 -13 0 -41 9 -62 19 -28 15
-54 19 -102 17 -35 -1 -75 1 -89 4 -14 4 -41 2 -60 -3z"/>
<path d="M1747 1231 c-9 -34 14 -41 48 -15 17 13 18 16 5 24 -24 16 -47 11
-53 -9z"/>
</g>
</svg>
