<?xml version="1.0" standalone="no"?>
<!DOCTYPE svg PUBLIC "-//W3C//DTD SVG 20010904//EN"
 "http://www.w3.org/TR/2001/REC-SVG-20010904/DTD/svg10.dtd">
<svg version="1.0" xmlns="http://www.w3.org/2000/svg"
 width="337.000000pt" height="468.000000pt" viewBox="0 0 337.000000 468.000000"
 preserveAspectRatio="xMidYMid meet">

<g transform="translate(0.000000,468.000000) scale(0.100000,-0.100000)"
fill="#000000" stroke="none">
<path d="M225 4615 c-51 -18 -65 -38 -65 -91 0 -62 24 -118 84 -198 90 -120
118 -187 161 -391 45 -218 55 -256 80 -331 14 -41 39 -102 55 -134 17 -33 30
-64 30 -69 0 -30 188 -271 211 -271 5 0 20 -10 34 -22 28 -24 28 -43 -2 -105
-17 -36 -46 -48 -133 -59 -30 -3 -80 -12 -110 -19 -30 -7 -93 -21 -140 -31
-64 -13 -97 -27 -135 -54 -103 -75 -107 -93 -110 -430 -2 -146 1 -325 6 -399
l8 -134 36 -37 c47 -48 151 -99 286 -140 l105 -32 13 -44 c10 -33 10 -55 3
-91 -6 -27 -21 -113 -33 -192 -22 -139 -22 -150 -9 -387 9 -161 10 -277 4
-341 -5 -54 -8 -132 -8 -173 0 -86 14 -312 20 -321 2 -3 4 -32 5 -63 2 -42 6
-56 17 -56 12 0 14 11 8 67 -26 249 -32 415 -20 518 6 49 8 51 73 92 36 23
122 99 191 167 69 69 128 126 133 126 4 0 7 -6 7 -14 0 -8 5 -16 10 -18 7 -2
7 -15 0 -38 -5 -19 -10 -54 -10 -77 0 -23 -7 -73 -15 -112 -8 -39 -17 -101
-19 -138 -2 -37 -9 -108 -15 -158 -16 -139 -24 -422 -12 -410 6 6 15 100 20
210 5 110 15 232 20 270 6 39 15 129 21 201 9 110 36 251 39 206 3 -35 97
-254 140 -326 27 -45 51 -90 55 -102 3 -11 26 -50 50 -87 24 -37 58 -100 75
-141 17 -40 42 -97 57 -126 15 -29 30 -65 33 -79 4 -14 16 -28 26 -30 17 -3
17 0 -3 34 -12 20 -22 44 -22 53 0 10 -6 26 -13 37 -8 11 -28 56 -46 100 -32
76 -67 144 -82 155 -3 3 -16 24 -28 47 -12 24 -47 87 -77 140 -50 87 -134 276
-134 303 0 19 19 10 85 -40 37 -28 88 -61 113 -74 79 -39 215 -95 249 -102 27
-5 34 -13 51 -63 21 -60 72 -226 72 -234 0 -3 -25 -13 -55 -22 -30 -10 -55
-22 -55 -27 0 -10 44 -1 84 18 16 8 30 13 31 12 6 -7 35 -137 35 -157 0 -12 6
-34 14 -49 7 -15 19 -51 26 -79 8 -34 17 -53 27 -53 9 0 12 6 9 18 -3 9 -10
37 -16 62 -7 25 -16 50 -20 55 -14 17 -40 117 -40 151 0 19 -6 53 -14 76 -26
83 -85 284 -114 393 -17 61 -46 169 -66 240 -19 72 -47 179 -61 239 -14 59
-32 122 -40 140 -8 17 -23 57 -33 88 l-19 56 71 36 c58 29 72 32 79 20 13 -22
28 -16 22 9 -3 13 2 30 13 42 16 19 29 20 197 19 101 0 200 -5 225 -12 25 -6
88 -22 140 -35 l95 -24 20 -59 c30 -88 47 -126 65 -154 10 -14 45 -79 79 -145
35 -66 70 -128 78 -137 14 -16 10 -23 -44 -90 -32 -40 -79 -88 -103 -106 -91
-68 -420 -385 -420 -404 0 -29 75 13 179 98 36 30 71 54 77 54 7 0 19 8 26 19
12 17 41 42 163 141 24 19 82 68 130 109 l86 74 29 -21 c36 -27 34 -27 64 2
31 28 32 34 5 62 l-21 23 97 105 c54 57 113 126 131 152 18 26 52 65 74 88 47
48 160 211 160 232 0 8 4 14 8 14 5 0 14 11 22 24 14 27 62 40 138 37 83 -3
106 36 53 89 -26 27 -33 29 -80 23 -35 -4 -51 -2 -51 5 0 7 18 58 41 114 67
167 91 239 85 253 -6 17 -114 9 -132 -9 -7 -6 -19 -45 -29 -86 -24 -113 -65
-238 -85 -263 -17 -21 -25 -21 -166 -19 -177 3 -197 6 -209 35 -8 18 -21 23
-70 28 -33 4 -92 12 -132 18 -87 13 -104 8 -163 -53 -42 -43 -47 -46 -97 -46
-44 0 -71 9 -151 49 -53 27 -102 50 -108 52 -6 2 -48 29 -93 59 l-83 55 8 110
c9 125 6 357 -6 488 -6 76 -12 94 -41 137 -59 86 -145 135 -265 150 -113 14
-211 40 -239 61 -31 25 -37 93 -8 87 10 -2 23 -15 30 -29 22 -47 39 -54 91
-41 26 6 62 14 80 17 17 4 32 11 32 16 0 5 -26 21 -57 35 -32 14 -68 32 -81
40 -21 14 -21 16 -7 44 8 16 15 53 15 82 0 50 2 54 30 65 46 17 46 36 1 93
-23 29 -41 58 -41 66 0 8 -12 42 -26 75 -14 34 -23 67 -20 75 3 7 2 14 -3 16
-4 2 -22 32 -40 68 -76 148 -178 265 -338 390 -43 33 -85 67 -94 75 -9 8 -19
15 -24 15 -4 0 -47 23 -96 50 -111 64 -184 141 -219 231 -30 79 -61 134 -97
177 -34 39 -80 49 -138 27z m122 -42 c29 -33 48 -68 94 -177 43 -105 122 -184
244 -247 103 -52 272 -186 375 -296 74 -78 173 -234 164 -257 -2 -6 -36 -20
-74 -30 -66 -17 -206 -82 -241 -112 -13 -12 -19 -11 -38 10 -12 13 -35 26 -49
29 -41 8 -108 -12 -138 -41 -23 -24 -25 -32 -21 -82 2 -30 9 -67 16 -80 9 -19
5 -17 -18 10 -37 42 -120 210 -154 311 -26 78 -66 241 -92 374 -9 44 -26 107
-40 140 -13 33 -27 71 -31 85 -6 24 -80 134 -108 162 -26 27 -48 81 -53 133
-6 52 -5 54 28 74 50 30 104 28 136 -6z m909 -1050 c8 -21 22 -52 30 -70 8
-17 14 -37 14 -45 0 -7 18 -37 40 -65 39 -52 39 -53 18 -64 -26 -14 -96 -17
-120 -5 -13 6 -18 4 -18 -8 0 -14 14 -21 65 -28 13 -2 21 -12 23 -30 3 -23 -1
-28 -25 -33 -46 -11 -53 -14 -53 -25 0 -6 15 -8 40 -4 22 4 40 4 40 1 0 -32
-203 -60 -250 -35 -31 17 -59 74 -71 147 -9 57 -31 143 -43 172 -5 12 13 25
83 58 81 39 164 68 199 70 7 1 20 -16 28 -36z m-395 -84 c23 -24 32 -29 43
-20 19 16 31 -2 50 -75 22 -85 19 -114 -4 -35 -16 58 -43 102 -54 90 -3 -2 6
-36 19 -74 13 -39 27 -92 30 -119 5 -38 15 -58 47 -92 43 -47 85 -64 156 -64
l42 0 0 -60 c0 -46 4 -61 18 -69 15 -9 13 -19 -33 -107 -27 -53 -71 -129 -97
-168 -26 -39 -48 -77 -48 -84 0 -8 -23 -59 -51 -115 -27 -56 -61 -129 -74
-162 -13 -33 -42 -104 -64 -158 -23 -54 -41 -115 -41 -135 0 -21 -5 -54 -10
-74 l-11 -37 -46 18 -47 18 -22 109 c-12 60 -36 150 -53 199 -39 110 -59 201
-62 280 -3 71 -8 97 -19 90 -4 -3 -8 -65 -8 -137 -1 -97 -7 -159 -22 -228 -12
-52 -26 -121 -32 -152 l-11 -57 -40 -3 c-66 -5 -56 -25 15 -30 47 -4 83 -16
143 -46 44 -23 112 -50 150 -60 39 -11 116 -36 173 -56 57 -20 149 -44 204
-52 56 -8 105 -17 109 -20 4 -2 9 -1 11 3 1 5 21 20 44 36 38 26 45 27 113 21
84 -8 83 -28 0 -30 -69 -3 -85 -19 -66 -66 18 -43 60 -64 151 -73 39 -4 64
-10 57 -15 -16 -9 -123 -3 -171 10 -45 13 -60 12 -60 0 0 -5 8 -10 19 -10 37
0 163 -33 152 -40 -14 -8 -138 8 -162 21 -22 11 -39 12 -39 1 0 -13 42 -30 95
-38 38 -5 44 -9 30 -16 -17 -10 -87 -1 -127 17 -28 11 -21 -10 7 -25 14 -7 23
-15 21 -17 -4 -4 -131 36 -231 72 -33 12 -87 25 -120 29 -179 19 -161 16 -383
80 -143 41 -233 83 -290 134 l-40 37 -8 170 c-13 250 -10 549 5 622 16 74 32
100 92 146 66 50 76 54 158 61 40 4 85 12 99 17 14 5 59 14 101 20 126 17 149
26 164 62 19 45 41 138 39 165 -1 13 4 33 12 45 20 31 29 67 18 67 -5 0 -15
-13 -22 -30 -10 -24 -19 -30 -42 -30 -40 0 -82 24 -111 62 -32 43 -39 75 -21
96 7 9 21 26 29 37 15 19 15 19 9 -8 -6 -28 12 -87 27 -87 12 0 11 14 -3 45
-10 22 -9 29 10 47 19 20 24 20 49 8 15 -8 32 -16 36 -18 5 -3 4 5 -2 16 -14
25 -70 45 -105 36 -15 -3 -37 -20 -51 -38 -21 -27 -25 -28 -25 -11 0 27 27 64
54 75 11 5 38 9 59 9 31 1 45 -5 68 -30z m151 -306 c11 -14 11 -16 -1 -9 -16
10 -41 68 -40 93 0 10 6 -1 14 -25 7 -23 19 -50 27 -59z m-172 11 c0 -31 -27
-21 -68 27 l-33 38 50 -22 c39 -16 51 -26 51 -43z m450 -44 c0 -5 -7 -10 -16
-10 -8 0 -12 5 -9 10 3 6 10 10 16 10 5 0 9 -4 9 -10z m-75 -20 c-11 -5 -40
-8 -65 -8 l-45 1 40 7 c22 4 51 7 65 8 23 1 23 0 5 -8z m121 -47 l67 -36 -44
-14 -44 -13 -38 42 c-28 31 -34 43 -25 50 7 4 14 8 15 8 1 0 32 -17 69 -37z
m-107 -206 c-71 -114 -155 -265 -178 -317 -13 -30 -36 -82 -52 -115 -58 -126
-156 -397 -174 -482 -7 -37 -25 -45 -25 -12 0 65 107 359 180 494 21 39 43 89
49 112 6 23 27 65 46 93 19 29 60 98 92 154 78 141 86 152 91 138 2 -7 -11
-36 -29 -65z m171 48 c25 -3 51 -9 57 -13 18 -11 -39 -144 -128 -298 -70 -123
-84 -159 -52 -133 15 13 15 12 2 -8 -8 -13 -16 -18 -20 -12 -12 20 -164 -254
-208 -376 -18 -47 -47 -191 -43 -207 3 -13 -21 -9 -94 15 -66 23 -69 25 -66
53 6 50 61 218 113 346 28 68 59 143 69 168 35 89 101 217 165 320 36 58 65
110 65 117 0 24 30 42 63 38 17 -3 52 -7 77 -10z m100 -34 c0 -6 -4 -13 -10
-16 -5 -3 -10 1 -10 9 0 9 5 16 10 16 6 0 10 -4 10 -9z m57 -3 c15 -7 55 -29
88 -50 84 -52 105 -96 116 -248 17 -231 1 -591 -30 -648 -13 -25 -14 -32 -2
-32 5 0 18 23 30 50 12 28 25 50 29 50 5 0 20 -13 35 -28 15 -16 84 -55 152
-87 69 -32 125 -61 125 -65 0 -7 -79 -13 -145 -12 -11 1 -69 1 -129 2 -100 2
-115 5 -190 36 -44 19 -97 46 -117 60 l-37 25 -6 107 c-4 59 -9 215 -11 347
-4 233 -5 240 -24 237 -25 -4 -23 11 13 91 14 32 26 67 26 78 0 16 39 99 47
99 1 0 15 -5 30 -12z m-108 -125 c-29 -68 -112 -209 -142 -238 -14 -14 -10 -6
56 105 30 52 68 126 83 164 15 39 29 65 31 59 2 -6 -11 -46 -28 -90z m-89
-334 c-54 -173 -100 -395 -100 -486 0 -80 -1 -83 -27 -97 -24 -11 -40 -12
-108 0 -44 7 -81 13 -82 13 -4 2 41 151 63 209 13 35 53 123 90 197 36 73 64
140 62 147 -3 7 -26 -32 -53 -87 -26 -55 -60 -125 -74 -155 -15 -31 -43 -103
-62 -160 -38 -118 -52 -113 -19 7 35 125 180 408 210 408 7 0 38 41 69 90 l56
90 3 -38 c2 -22 -10 -78 -28 -138z m80 -91 c-2 -145 0 -272 3 -283 3 -11 8
-43 12 -71 8 -60 8 -60 61 -101 25 -19 49 -30 60 -27 11 2 29 -4 42 -14 22
-17 21 -18 -67 -17 -84 0 -88 1 -79 19 16 30 -3 38 -103 43 -52 3 -95 6 -97 7
-8 8 33 241 64 366 40 156 59 210 74 210 6 0 10 22 10 49 0 47 7 81 17 81 2 0
4 -118 3 -262z m-874 24 c4 -20 17 -71 31 -112 25 -79 66 -260 59 -267 -2 -2
-42 16 -89 39 l-87 43 7 45 c3 25 11 61 18 81 7 19 19 76 26 127 13 94 24 108
35 44z m2700 -177 c-11 -45 -47 -135 -54 -135 -3 0 -18 11 -32 25 -25 24 -26
29 -17 75 10 52 17 57 76 59 31 1 33 -1 27 -24z m-66 -177 c0 -23 -9 -22 -37
1 -23 19 -29 41 -16 54 10 11 53 -34 53 -55z m-37 -22 c21 -16 22 -45 2 -52
-21 -9 -45 14 -45 42 0 27 16 30 43 10z m-698 -72 c36 -9 65 -21 65 -26 0 -6
-8 -7 -17 -3 -10 4 -31 9 -46 10 -46 5 -77 15 -77 25 0 13 -1 13 75 -6z m673
4 c16 -16 15 -39 -1 -32 -7 2 -18 13 -25 24 -10 16 -10 20 1 20 7 0 18 -5 25
-12z m-22 -56 c-9 -8 -26 10 -26 26 1 15 2 15 15 -2 8 -11 13 -21 11 -24z
m-756 -2 c0 -26 -4 -30 -26 -30 l-25 0 21 30 c12 17 23 30 26 30 2 0 4 -13 4
-30z m50 -34 c0 -29 -7 -75 -15 -102 -19 -62 -19 -74 -1 -48 25 35 48 133 42
172 -6 32 -5 34 6 17 18 -29 15 -114 -5 -154 -19 -38 -16 -51 8 -31 20 17 35
74 36 140 0 40 3 50 9 35 14 -32 11 -102 -4 -140 -13 -29 -13 -35 -1 -35 15 0
30 41 40 110 4 25 11 52 15 60 7 13 10 12 16 -3 9 -25 -2 -111 -18 -137 -27
-43 -148 -97 -194 -86 -25 7 -34 36 -10 36 8 0 17 8 21 18 16 38 34 129 35
170 0 26 4 41 10 37 6 -3 10 -30 10 -59z m240 54 c0 -9 -40 -30 -58 -30 -4 0
-13 9 -20 20 -11 19 -10 20 33 20 25 0 45 -5 45 -10z m171 -63 l144 -2 3 -33
3 -32 -138 6 c-76 3 -164 7 -196 7 -55 2 -57 3 -54 27 4 26 36 41 73 33 12 -2
86 -5 165 -6z m297 -24 c-3 -42 -28 -59 -28 -20 0 32 9 57 22 57 5 0 8 -17 6
-37z m57 2 c0 -20 -6 -31 -17 -33 -15 -3 -18 4 -18 33 0 29 3 36 18 33 11 -2
17 -13 17 -33z m111 27 c6 -4 13 -15 17 -24 9 -24 -19 -36 -65 -31 -31 4 -38
9 -38 27 0 13 3 26 7 29 9 9 65 9 79 -1z m-1406 -22 c135 0 298 1 363 2 l119
3 -6 -34 c-3 -18 -7 -36 -10 -38 -4 -5 -531 -14 -751 -13 -108 0 -204 9 -227
21 -21 11 -41 46 -33 58 3 5 71 8 153 6 81 -2 257 -4 392 -5z m1150 -4 c0 -25
-12 -46 -26 -46 -9 0 -14 11 -14 30 0 23 4 30 20 30 11 0 20 -6 20 -14z m50
-16 c0 -24 -4 -30 -21 -30 -15 0 -19 4 -15 16 3 9 6 22 6 30 0 8 7 14 15 14
10 0 15 -10 15 -30z m-124 -63 c3 -3 -16 -33 -43 -67 -26 -34 -62 -82 -78
-106 -17 -24 -51 -67 -77 -96 -41 -47 -83 -98 -171 -212 -15 -20 -31 -36 -36
-36 -4 0 -20 24 -36 53 -15 28 -50 89 -76 133 -27 45 -49 86 -49 92 0 5 -11
30 -25 53 -33 58 -32 69 8 69 57 0 153 58 203 122 8 10 45 12 193 6 100 -3
185 -8 187 -11z m70 -32 c9 -20 14 -38 12 -41 -8 -7 -48 59 -42 68 8 13 12 10
30 -27z m34 4 c0 -5 -4 -9 -10 -9 -5 0 -10 7 -10 16 0 8 5 12 10 9 6 -3 10
-10 10 -16z m-2270 -10 c50 -7 47 -8 -28 -5 -51 2 -87 8 -95 16 -10 10 -4 11
28 5 22 -4 65 -11 95 -16z m1400 0 c0 -11 -6 -19 -12 -18 -30 1 -159 27 -165
32 -3 4 35 6 85 6 83 -2 92 -4 92 -20z m100 -18 c0 -40 35 -113 166 -352 35
-64 64 -120 64 -124 0 -5 -10 -19 -21 -31 l-21 -23 -23 27 c-35 43 -204 382
-220 442 -8 30 -17 65 -21 78 -6 20 -3 22 35 22 41 0 41 0 41 -39z m45 29 c-3
-5 -10 -10 -16 -10 -5 0 -9 5 -9 10 0 6 7 10 16 10 8 0 12 -4 9 -10z m669 -46
c23 -48 15 -53 -18 -10 -30 39 -31 46 -13 46 7 0 21 -16 31 -36z m-1977 -7 c2
-3 -8 -7 -22 -11 -30 -8 -32 -21 -4 -36 24 -14 53 5 44 28 -4 10 -1 12 12 7
10 -4 26 -10 36 -12 9 -3 17 -10 17 -15 0 -6 10 -8 23 -5 45 12 53 -5 32 -67
-20 -58 -33 -67 -56 -40 -10 12 -10 20 -1 35 16 26 16 27 -19 34 -42 9 -59 -8
-34 -35 21 -23 13 -36 -24 -42 -21 -3 -27 5 -53 67 -16 39 -26 80 -23 92 4 19
9 21 36 13 18 -5 34 -11 36 -13z m-337 -12 c0 -14 5 -25 10 -25 6 0 10 11 10
25 0 14 5 25 10 25 6 0 10 -9 10 -19 0 -11 5 -23 10 -26 6 -4 10 5 10 19 0 36
18 32 29 -6 l9 -33 1 35 c1 45 18 27 24 -25 4 -40 4 -40 5 8 2 34 6 47 17 47
11 0 15 -11 15 -35 0 -48 40 -90 77 -80 24 6 42 -6 43 -27 0 -14 -77 5 -140
35 -46 21 -81 30 -118 31 -49 0 -53 2 -48 21 3 11 6 28 6 38 0 9 5 17 10 17 6
0 10 -11 10 -25z m2295 -25 c17 -32 13 -39 -74 -140 -31 -36 -75 -90 -98 -120
-93 -123 -306 -325 -548 -520 -44 -35 -89 -74 -101 -86 -12 -12 -39 -33 -60
-47 -21 -13 -63 -45 -93 -71 -81 -68 -87 -55 -7 17 37 34 105 98 150 142 44
44 109 102 142 128 34 27 93 85 130 130 38 45 98 111 134 147 36 36 76 81 90
99 38 51 97 123 125 151 13 14 39 49 59 78 19 29 52 72 73 96 41 48 52 47 78
-4z m-2055 31 c0 -5 -7 -11 -15 -15 -19 -7 -20 -26 -1 -26 7 0 19 -6 25 -14
14 -16 -9 -29 -35 -19 -23 8 -37 52 -23 69 13 16 49 19 49 5z m294 -57 c18 -7
12 -24 -10 -24 -8 0 -14 7 -14 15 0 17 2 18 24 9z m-392 -54 c34 -16 81 -32
105 -36 31 -4 49 -14 60 -30 14 -21 23 -24 85 -24 l69 0 15 35 c8 19 18 35 23
35 5 0 16 3 24 6 13 5 14 -1 7 -33 -15 -63 -108 -277 -129 -293 -12 -10 -61
-90 -61 -100 0 -6 -7 -13 -15 -16 -8 -4 -15 -11 -15 -18 0 -22 -237 -253 -298
-290 -33 -20 -62 -36 -64 -36 -3 0 -8 71 -12 158 -4 86 -9 201 -12 256 -5 98
15 299 38 378 17 57 71 59 180 8z m544 -60 c36 -100 79 -251 96 -335 6 -27 24
-95 40 -150 53 -178 66 -233 56 -243 -11 -11 -51 -2 -103 22 -16 8 -65 28
-108 45 -45 18 -103 51 -135 77 -31 26 -64 49 -72 52 -20 7 -120 104 -120 117
0 6 17 35 37 65 81 120 156 283 178 385 15 67 14 66 57 63 l40 -3 34 -95z
m-271 0 c18 -20 17 -20 -26 -20 l-44 0 25 20 c14 11 25 20 26 20 0 0 9 -9 19
-20z m1513 -444 c-10 -18 -11 -18 -31 2 -20 21 -20 22 -2 42 l19 21 12 -23 c9
-16 9 -28 2 -42z"/>
<path d="M1135 3504 c-87 -26 -99 -33 -124 -76 -30 -52 -22 -57 90 -62 100 -5
133 6 150 46 15 37 7 44 -62 47 -52 2 -96 -17 -134 -59 -10 -11 -24 -20 -32
-20 -22 0 12 57 45 73 37 20 131 41 166 39 25 -2 27 0 16 13 -15 18 -49 18
-115 -1z m63 -102 c3 -18 -1 -22 -21 -22 -28 0 -45 29 -25 42 21 13 43 4 46
-20z m-80 -20 c-5 -2 -16 -1 -25 2 -14 6 -14 8 3 21 17 12 20 11 25 -3 4 -9 2
-19 -3 -20z"/>
<path d="M825 3287 c-18 -42 -18 -47 -6 -47 16 0 42 63 31 74 -6 6 -15 -3 -25
-27z"/>
<path d="M2321 4188 c-5 -13 -18 -32 -30 -42 -21 -19 -22 -19 -49 6 -38 36
-64 42 -93 20 -26 -20 -67 -34 -112 -38 -15 -1 -36 -8 -45 -16 -9 -8 -25 -18
-34 -21 -12 -4 -18 -17 -18 -36 0 -21 -6 -32 -20 -36 -25 -8 -39 -33 -38 -71
1 -16 -2 -38 -6 -50 -4 -14 1 -30 14 -46 14 -19 18 -34 14 -56 -5 -23 -1 -33
20 -49 15 -13 26 -31 26 -45 0 -14 8 -32 18 -40 23 -20 69 -31 77 -17 5 7 15
5 31 -5 13 -9 33 -16 45 -16 20 0 20 -2 7 -22 -32 -50 -29 -108 5 -95 9 3 18
-1 21 -10 6 -14 8 -14 25 1 17 16 19 16 24 -4 4 -16 12 -21 29 -18 13 2 28 -4
35 -12 10 -12 15 -13 32 -2 14 8 27 9 39 3 51 -26 73 -34 79 -28 3 4 13 1 22
-6 24 -21 50 -27 57 -15 4 7 9 6 15 -3 4 -7 19 -14 33 -14 13 -1 32 -8 42 -16
15 -12 18 -12 27 3 10 14 13 14 33 1 20 -13 23 -12 37 8 14 20 17 20 38 5 25
-17 49 -6 49 22 0 12 3 13 12 4 7 -7 20 -12 30 -12 13 0 18 8 18 30 0 32 8 37
29 18 10 -11 15 -9 27 6 8 11 14 26 14 33 0 7 5 13 10 13 13 0 13 -75 0 -122
-6 -21 -22 -51 -35 -67 -61 -71 -13 -125 92 -103 30 6 65 19 78 29 33 25 95
146 95 187 0 77 -35 132 -106 168 -50 25 -69 60 -59 115 5 31 13 41 44 56 50
25 108 94 122 149 10 38 9 49 -10 93 -31 73 -85 105 -178 105 -55 0 -73 -4
-86 -18 -22 -24 -21 -43 3 -120 26 -82 26 -108 0 -115 -16 -4 -20 0 -20 19 0
28 -16 31 -48 8 -21 -14 -22 -14 -22 10 0 38 -20 43 -47 12 -13 -15 -23 -21
-23 -13 0 7 -6 22 -14 33 -14 18 -16 18 -32 2 -13 -13 -21 -14 -37 -5 -15 9
-21 9 -24 -1 -4 -10 -9 -10 -23 3 -17 15 -20 15 -38 -3 -15 -15 -23 -17 -31
-9 -9 9 -16 9 -30 0 -13 -8 -22 -8 -29 -1 -13 13 -32 2 -32 -20 -1 -16 -1 -16
-11 1 -12 21 -38 22 -45 2 -5 -11 -11 -12 -25 -5 -15 8 -23 6 -36 -10 -10 -11
-27 -20 -39 -20 -14 0 -24 -8 -27 -22 -5 -19 -8 -20 -23 -8 -14 12 -18 12 -29
-3 -9 -13 -14 -14 -17 -6 -3 8 -11 10 -22 6 -15 -6 -18 -15 -14 -51 5 -42 4
-44 -24 -48 -17 -3 -33 1 -40 10 -7 8 -21 18 -33 22 -14 5 -26 27 -38 69 -10
33 -23 63 -28 67 -6 4 -5 11 3 21 6 8 11 28 10 44 -2 20 2 29 12 29 8 0 21 8
28 18 28 37 98 68 98 42 0 -5 12 -21 27 -35 30 -27 87 -34 123 -15 33 17 59
65 68 124 9 58 -1 85 -17 44z m-105 -43 c19 -14 18 -14 -3 -15 -13 0 -23 -5
-23 -11 0 -7 11 -8 31 -4 24 5 30 4 27 -6 -3 -8 -11 -14 -19 -15 -35 -2 -40
-5 -34 -14 14 -22 60 -10 87 22 32 38 38 19 9 -28 -41 -68 -151 -45 -151 31 0
52 35 71 76 40z m-150 -54 c-10 -16 -36 -13 -43 5 -8 22 18 37 36 20 7 -8 10
-19 7 -25z m52 27 c-6 -18 -25 -20 -31 -3 -5 10 0 15 14 15 12 0 19 -5 17 -12z
m934 -34 c58 -37 83 -109 58 -166 -24 -53 -48 -84 -81 -100 -37 -18 -55 -4
-24 18 46 34 78 68 67 72 -6 2 -27 -8 -46 -23 -54 -41 -55 -11 -2 37 25 23 46
47 46 54 0 30 -115 94 -140 79 -4 -3 1 -30 11 -62 26 -78 28 -232 5 -269 -16
-24 -16 -27 7 -69 14 -24 28 -61 31 -82 7 -39 -10 -131 -39 -212 -8 -24 -15
-47 -15 -52 0 -17 26 -9 72 20 51 32 75 62 80 101 3 22 -1 26 -37 30 -54 7
-56 35 -2 35 47 0 49 20 2 35 -27 9 -35 17 -35 36 0 28 2 29 39 9 16 -8 36
-31 46 -51 21 -46 22 -129 0 -150 -8 -9 -15 -20 -15 -26 0 -22 -45 -71 -76
-84 -49 -21 -112 -21 -132 0 -16 16 -16 18 5 34 58 45 89 205 57 298 -10 30
-23 54 -30 54 -6 0 -27 -14 -45 -30 -114 -102 -181 -119 -354 -92 -147 24
-217 43 -275 76 -25 14 -48 26 -51 26 -4 0 -10 -15 -13 -34 -8 -39 -36 -71
-36 -40 0 11 8 33 19 49 12 21 16 42 13 64 -4 27 0 38 19 53 74 57 196 89 355
91 142 2 216 -12 311 -59 29 -15 57 -23 63 -19 18 11 6 183 -19 270 -18 63
-18 72 -4 87 31 35 103 31 165 -8z m-1047 -29 c0 -22 -31 -33 -47 -17 -17 17
-1 44 24 40 15 -2 23 -10 23 -23z m1013 -58 l22 -23 -25 -24 c-30 -28 -35 -24
-42 29 -7 48 10 55 45 18z m-1059 -9 c15 -39 -23 -65 -48 -34 -9 11 -10 20 -1
35 14 28 39 27 49 -1z m611 -103 c0 -39 -3 -45 -21 -45 -19 0 -21 4 -15 32 5
28 22 58 32 58 2 0 4 -20 4 -45z m120 -6 c0 -35 -3 -39 -25 -39 -29 0 -32 17
-10 61 20 38 35 29 35 -22z m-732 15 c2 -11 -5 -27 -14 -35 -14 -12 -19 -10
-35 9 -24 30 -14 54 20 50 17 -2 27 -10 29 -24z m551 -36 c1 -21 -27 -24 -35
-5 -3 8 0 27 7 43 l12 29 7 -25 c5 -14 8 -33 9 -42z m111 22 c0 -27 -4 -40
-14 -40 -11 0 -11 8 -3 40 6 22 12 40 14 40 2 0 3 -18 3 -40z m140 3 c0 -47
-11 -66 -34 -57 -18 7 -14 32 12 72 19 30 22 28 22 -15z m-361 -30 c1 -14 -5
-23 -14 -23 -16 0 -20 35 -8 66 6 16 7 16 14 -2 4 -10 8 -29 8 -41z m431 10
c0 -49 -10 -64 -37 -57 -19 5 -20 9 -12 32 9 25 37 62 46 62 1 0 3 -17 3 -37z
m-488 -18 c2 -21 -2 -30 -14 -33 -14 -3 -18 3 -18 31 0 58 26 60 32 2z m108
15 c0 -16 -4 -30 -10 -30 -5 0 -10 14 -10 30 0 17 5 30 10 30 6 0 10 -13 10
-30z m-176 -62 c-3 -4 -9 -8 -15 -8 -11 0 -12 53 -2 64 9 9 25 -43 17 -56z
m604 9 c-9 -29 -14 -34 -25 -25 -14 11 -9 42 10 66 18 22 27 -2 15 -41z m-892
6 c5 -19 2 -30 -11 -40 -25 -17 -32 -17 -44 5 -7 14 -6 25 5 40 21 30 42 28
50 -5z m184 -40 c0 -44 -5 -41 -14 10 -5 27 -4 37 3 32 6 -3 11 -22 11 -42z
m49 5 c1 -5 -3 -8 -8 -8 -11 0 -21 37 -13 45 6 5 20 -19 21 -37z m-163 -43
c16 -24 16 -27 -2 -46 -26 -29 -66 -22 -79 14 -8 24 -6 31 10 43 28 21 53 17
71 -11z m74 -34 c13 -25 2 -53 -19 -49 -22 4 -29 68 -7 68 8 0 20 -9 26 -19z
m790 -143 c0 -23 -12 -23 -41 1 -20 16 -22 21 -10 35 13 15 15 15 32 0 11 -10
19 -25 19 -36z m-728 -5 c-12 -25 -18 -31 -20 -19 -6 31 7 66 23 60 12 -5 11
-11 -3 -41z m64 6 c7 -12 -15 -59 -28 -59 -10 0 -11 54 -1 63 9 10 21 8 29 -4z
m607 -26 c25 -50 8 -60 -27 -17 -23 29 -26 38 -15 45 21 13 22 12 42 -28z
m-560 -26 c-17 -31 -18 -31 -21 -9 -5 33 5 53 22 46 14 -5 13 -10 -1 -37z m77
9 c0 -20 -26 -40 -35 -26 -10 16 2 40 20 40 8 0 15 -6 15 -14z m428 -19 c15
-41 15 -57 2 -57 -12 0 -51 75 -43 84 14 14 30 4 41 -27z m-390 14 c10 -6 11
-13 1 -34 -15 -32 -29 -26 -29 14 0 30 6 34 28 20z m56 -7 c17 -6 21 -31 10
-58 -10 -25 -34 0 -34 35 0 31 1 32 24 23z m281 -74 c-8 -26 -29 -15 -48 26
-21 43 -21 42 6 46 16 3 25 -4 35 -25 7 -16 10 -37 7 -47z m-205 30 c0 -59
-21 -55 -35 8 -6 28 -4 32 14 32 18 0 21 -6 21 -40z m60 -11 c0 -45 -20 -51
-31 -8 -7 30 -1 49 17 49 10 0 14 -13 14 -41z m66 15 c4 -14 2 -35 -3 -47
l-10 -21 -15 24 c-9 14 -19 35 -23 48 -5 19 -3 22 19 22 19 0 27 -7 32 -26z
m382 -49 c-10 -23 -87 -89 -95 -82 -1 2 5 26 14 55 16 51 18 52 55 52 37 0 37
-1 26 -25z"/>
<path d="M2510 3771 c0 -5 5 -13 11 -17 6 -3 20 -27 31 -53 15 -35 18 -58 14
-98 -8 -65 10 -72 20 -8 8 58 -1 104 -29 146 -22 33 -47 49 -47 30z"/>
<path d="M2677 3774 c-3 -3 4 -20 16 -36 18 -24 22 -43 22 -104 0 -45 4 -73
10 -71 14 5 18 106 6 148 -11 37 -43 74 -54 63z"/>
<path d="M2396 3708 c7 -29 14 -72 14 -95 0 -25 5 -43 11 -43 15 0 6 126 -11
163 -22 45 -29 31 -14 -25z"/>
<path d="M2270 3731 c0 -6 5 -13 10 -16 6 -3 10 -27 10 -51 0 -32 4 -44 12
-42 15 5 11 87 -4 106 -12 14 -28 16 -28 3z"/>
<path d="M2793 3716 c4 -10 7 -33 7 -52 0 -19 5 -34 11 -34 16 0 7 93 -10 98
-10 3 -12 0 -8 -12z"/>
<path d="M2275 3390 c-3 -5 -1 -10 6 -10 9 0 10 -53 5 -226 l-8 -225 44 3 43
3 3 233 2 232 -44 0 c-25 0 -48 -4 -51 -10z m71 -222 l-1 -213 -24 -3 -24 -4
7 89 c4 48 9 145 9 215 2 110 4 128 18 128 14 0 16 -24 15 -212z"/>
<path d="M777 643 c-3 -10 -8 -61 -12 -113 -4 -52 -13 -124 -21 -158 -19 -82
-24 -372 -6 -372 4 0 8 71 10 158 2 91 10 189 19 232 17 85 32 270 21 270 -4
0 -9 -8 -11 -17z"/>
<path d="M1315 543 c4 -10 13 -38 22 -61 8 -24 23 -58 33 -75 25 -42 110 -215
110 -225 0 -10 68 -173 75 -180 26 -26 -27 133 -62 183 -7 11 -13 27 -13 37 0
21 -58 147 -76 165 -7 7 -27 49 -45 93 -18 44 -37 80 -42 80 -5 0 -6 -8 -2
-17z"/>
<path d="M920 436 c0 -27 6 -48 15 -56 23 -19 29 -5 10 23 -10 16 -14 34 -9
51 4 16 2 26 -5 26 -6 0 -11 -18 -11 -44z"/>
<path d="M860 415 c0 -49 4 -60 34 -93 44 -47 60 -35 17 13 -26 30 -31 44 -31
85 0 28 -4 50 -10 50 -5 0 -10 -25 -10 -55z"/>
<path d="M1625 269 c-20 -12 -48 -19 -82 -19 -29 0 -53 -4 -53 -10 0 -6 27
-10 60 -10 52 0 64 4 92 30 37 33 28 38 -17 9z"/>
</g>
</svg>
