<?xml version="1.0" standalone="no"?><!DOCTYPE svg PUBLIC "-//W3C//DTD SVG 1.1//EN" "http://www.w3.org/Graphics/SVG/1.1/DTD/svg11.dtd"><svg t="1692776091234" class="icon" viewBox="0 0 1024 1024" version="1.1" xmlns="http://www.w3.org/2000/svg" p-id="2104" width="16" height="16" xmlns:xlink="http://www.w3.org/1999/xlink"><path d="M789.333333 85.333333h-554.666666a96 96 0 0 0-96 96v661.333334A96 96 0 0 0 234.666667 938.666667h554.666666a96 96 0 0 0 96-96V181.333333A96 96 0 0 0 789.333333 85.333333z m-341.333333 331.093334a32.426667 32.426667 0 0 0-14.08 3.413333l-60.586667 29.866667v-298.666667h149.333334v298.666667l-60.586667-29.866667a32.426667 32.426667 0 0 0-14.08-3.413333z m341.333333 458.24h-554.666666a32.426667 32.426667 0 0 1-32-32v-48.64a90.453333 90.453333 0 0 0 32 5.973333h554.666666a90.453333 90.453333 0 0 0 32-5.973333v48.64a32.426667 32.426667 0 0 1-32 32z m0-138.666667h-554.666666a32.426667 32.426667 0 0 1-32-32V181.333333a32.426667 32.426667 0 0 1 32-32h74.666666v352a31.573333 31.573333 0 0 0 46.08 28.586667l92.586667-45.653333 92.586667 45.653333a32.426667 32.426667 0 0 0 14.08 3.413333h2.56a37.546667 37.546667 0 0 0 14.506666-4.266666 32 32 0 0 0 14.933334-27.306667V149.333333h202.666666a32.426667 32.426667 0 0 1 32 32V704a32.426667 32.426667 0 0 1-32 32z" fill="#212121" p-id="2105"></path></svg>